<?xml version="1.0" encoding="utf-8"?>
<!-- Svg Vector Icons : http://www.onlinewebfonts.com/icon -->
<!DOCTYPE svg PUBLIC "-//W3C//DTD SVG 1.1//EN" "http://www.w3.org/Graphics/SVG/1.1/DTD/svg11.dtd">
<svg version="1.1" xmlns="http://www.w3.org/2000/svg" xmlns:xlink="http://www.w3.org/1999/xlink" x="0px" y="0px" viewBox="0 0 1000 1000" enable-background="new 0 0 1000 1000" xml:space="preserve">
<metadata> Svg Vector Icons : http://www.onlinewebfonts.com/icon </metadata>
<g><g><path d="M20.9,530c64,80.2,254.3,293.9,479.4,293.9c225.1,0,415.4-213.8,479.4-293.9c13.8-17.8,13.8-42.9,0-59.9c-64-80.2-254.3-293.9-479.4-293.9c-225.1-0.8-415.4,213-479.4,293.1C6.4,487.1,6.4,512.1,20.9,530z M500.3,304.9c107.7,0,194.3,86.6,194.3,194.3c0,107.7-86.6,194.3-194.3,194.3c-107.7,0-194.3-86.6-194.3-194.3C306,391.5,392.6,304.9,500.3,304.9z"/><path d="M500.3,402c53.7,0,97.2,43.5,97.2,97.2c0,53.7-43.5,97.2-97.2,97.2c-53.7,0-97.2-43.5-97.2-97.2C403.1,445.5,446.6,402,500.3,402z"/></g><g></g><g></g><g></g><g></g><g></g><g></g><g></g><g></g><g></g><g></g><g></g><g></g><g></g><g></g><g></g></g>
</svg>